<svg xmlns="http://www.w3.org/2000/svg" viewBox="0 0 120 150" fill="none">
  <path fill="#fff" d="M58.4 58.9c5.4 26.6 5 55.4-.1 87.9l-9.6-1.1c4.7-29.4 5.8-58.9 2.3-86.2l7.4-.6Z"/>
  <path fill="#fff" d="M55.2 59.4c-6 16.7-16.8 28.6-32.3 35.8 4.2-18 14.9-29.9 32.3-35.8Z"/>
  <path fill="#fff" d="M56.5 57.2C40 63.6 24.3 62.8 9.4 54.8c17.6-7.5 33.3-6.7 47.1 2.4Z"/>
  <path fill="#fff" d="M56.9 54.1C38.8 52.4 24.6 44 14.5 28.8c18.8.8 32.9 9.2 42.4 25.3Z"/>
  <path fill="#fff" d="M59.1 52.2C44.3 42.2 36 28.4 34.2 10.8c16.6 9.3 24.9 23.1 24.9 41.4Z"/>
  <path fill="#fff" d="M62.3 51.8c1.3-18.4 9.7-32.2 25.1-41.4 1 18.6-7.4 32.4-25.1 41.4Z"/>
  <path fill="#fff" d="M64.1 53.9c10-16.7 24.8-25.6 44.3-26.8-10.9 16.6-25.7 25.5-44.3 26.8Z"/>
  <path fill="#fff" d="M64.2 57.3c15.8-9.4 32.1-10.8 48.9-4.3-14.3 9.8-30.6 11.2-48.9 4.3Z"/>
  <path fill="#fff" d="M63.5 60.3c17.5 3.1 31.1 12.8 40.7 29-18.6-2.2-32.2-11.9-40.7-29Z"/>
  <path fill="#fff" d="M60.1 61.7c6.3 14.4 5.3 28.5-3 42.3-7.6-14.4-6.6-28.5 3-42.3Z"/>
  <path fill="#fff" d="M54.2 60.7c-14.8 1.6-27.9 8-39.3 19.3 3.2-14.4 16.3-20.9 39.3-19.3Z" opacity=".98"/>
  <path fill="#fff" d="M65.3 59.1c13.6-.8 26.3 3.1 38.2 11.7-11.3 3.7-24.1-.2-38.2-11.7Z" opacity=".98"/>
</svg>
